<svg fill="#ffffff" height="211px" width="211px" version="1.1" id="Layer_1" xmlns="http://www.w3.org/2000/svg" xmlns:xlink="http://www.w3.org/1999/xlink" viewBox="0 0 482.00 482.00" xml:space="preserve" stroke="#ffffff" stroke-width="9.64"><g id="SVGRepo_bgCarrier" stroke-width="0"></g><g id="SVGRepo_tracerCarrier" stroke-linecap="round" stroke-linejoin="round"></g><g id="SVGRepo_iconCarrier"> <g> <g> <path d="M361.9,45.5C331.9,16.1,292,0,249.4,0h-16.8C190,0,150.1,16.2,120.1,45.5c-30,29.4-46.6,68.7-46.6,110.5v170.8 c0,41.8,16.6,80.9,46.6,110.1C150,466,190,482,232.6,482h16.8c42.6,0,82.5-16,112.5-45.1c30.1-29.2,46.6-68.3,46.6-110.1V156 C408.5,114.2,392,75,361.9,45.5z M241,97.5c12.7,0,23,10.3,23,23s-10.3,23-23,23s-23-10.3-23-23C218,107.9,228.3,97.5,241,97.5z M93.5,156C93.5,81.5,155,20.9,231,20v58.7c-18.9,4.5-33,21.5-33,41.8s14.1,37.3,33,41.8v47.2H93.5V156z M388.5,326.8 c0,74.5-62.4,135.2-139.1,135.2h-16.8c-76.7,0-139.1-60.7-139.1-135.2v-97.3h295V326.8z M388.5,209.5H251v-47.2 c18.9-4.5,33-21.5,33-41.8s-14.1-37.3-33-41.8V20c76,0.8,137.5,61.5,137.5,136V209.5z"></path> </g> </g> </g></svg>