<svg
    xmlns="http://www.w3.org/2000/svg"
    version="1.1"
    x="0px"
    y="0px"
    viewBox="0 0 100 125"
    >
    <g transform="translate(0,-952.36218)">
        <path
            d="m 49.919586,961.36082 a 1.150115,1.150115 0 0 0 -0.5,0.15625 l -19.6875,11.375 a 1.150115,1.150115 0 0 0 -0.0937,0.0625 1.150115,1.150115 0 0 0 -0.0625,0.0625 1.150115,1.150115 0 0 0 -0.1875,0.1875 1.150115,1.150115 0 0 0 -0.0312,0.0625 1.150115,1.150115 0 0 0 -0.0625,0.0937 1.150115,1.150115 0 0 0 -0.125,0.4375 1.150115,1.150115 0 0 0 0,0.0937 1.150115,1.150115 0 0 0 0,0.15625 l 0,21.9375 -19.125,11.06248 a 1.150115,1.150115 0 0 0 -0.0625,0.062 1.150115,1.150115 0 0 0 -0.125,0.062 1.150115,1.150115 0 0 0 -0.0625,0.062 1.150115,1.150115 0 0 0 -0.0312,0.031 1.150115,1.150115 0 0 0 -0.0312,0.062 1.150115,1.150115 0 0 0 -0.0312,0.031 1.150115,1.150115 0 0 0 -0.0312,0.062 1.150115,1.150115 0 0 0 -0.0312,0.031 1.150115,1.150115 0 0 0 -0.0312,0 1.150115,1.150115 0 0 0 -0.0625,0.125 1.150115,1.150115 0 0 0 0,0.031 1.150115,1.150115 0 0 0 -0.0312,0.062 1.150115,1.150115 0 0 0 0,0.031 1.150115,1.150115 0 0 0 -0.0312,0.094 1.150115,1.150115 0 0 0 0,0.031 1.150115,1.150115 0 0 0 -0.0312,0.062 1.150115,1.150115 0 0 0 0,0.062 1.150115,1.150115 0 0 0 0,0.062 1.150115,1.150115 0 0 0 0,0.062 1.150115,1.150115 0 0 0 0,0.1563 l 0,22.5937 a 1.150115,1.150115 0 0 0 0.59375,1 l 19.5625,11.2813 a 1.150115,1.150115 0 0 0 0.0937,0.062 l 0.0312,0.031 a 1.150115,1.150115 0 0 0 0.0625,0.031 1.150115,1.150115 0 0 0 0.0312,0.031 1.150115,1.150115 0 0 0 0.0625,0.031 1.150115,1.150115 0 0 0 0.0625,0 1.150115,1.150115 0 0 0 0.0625,0.031 1.150115,1.150115 0 0 0 0.0312,0 1.150115,1.150115 0 0 0 0.0937,0.031 1.150115,1.150115 0 0 0 0.0312,0 1.150115,1.150115 0 0 0 0.0625,0 1.150115,1.150115 0 0 0 0.0625,0 1.150115,1.150115 0 0 0 0.0625,0 1.150115,1.150115 0 0 0 0.0312,0 1.150115,1.150115 0 0 0 0.40625,-0.094 1.150115,1.150115 0 0 0 0.21875,-0.1563 l 19,-10.9375 18.96875,10.9375 a 1.150115,1.150115 0 0 0 0.0937,0.062 l 0.0312,0.031 a 1.150115,1.150115 0 0 0 0.0625,0.031 1.150115,1.150115 0 0 0 0.0312,0.031 1.150115,1.150115 0 0 0 0.0625,0.031 1.150115,1.150115 0 0 0 0.0625,0.031 1.150115,1.150115 0 0 0 0.0625,0 1.150115,1.150115 0 0 0 0.15625,0.031 1.150115,1.150115 0 0 0 0.0625,0 1.150115,1.150115 0 0 0 0.25,0 1.150115,1.150115 0 0 0 0.0312,0 1.150115,1.150115 0 0 0 0.3125,-0.094 1.150115,1.150115 0 0 0 0.0625,-0.062 1.150115,1.150115 0 0 0 0.21875,-0.125 l 19.46875,-11.25 a 1.150115,1.150115 0 0 0 0.59375,-1 l 0,-22.5937 a 1.150115,1.150115 0 0 0 -0.0937,-0.5938 1.150115,1.150115 0 0 0 0,-0.062 1.150115,1.150115 0 0 0 -0.3125,-0.4062 1.150115,1.150115 0 0 0 -0.0625,-0.031 1.150115,1.150115 0 0 0 -0.0312,-0.031 1.150115,1.150115 0 0 0 -0.0625,-0.031 1.150115,1.150115 0 0 0 0,-0.031 l -19.15625,-11.06253 0,-21.78125 a 1.150115,1.150115 0 0 0 -0.53125,-1.3125 l -19.71875,-11.375 a 1.150115,1.150115 0 0 0 -0.65625,-0.15625 z m 0.0937,2.5 17.40625,10.03125 -17.40625,10.03125 -17.40625,-10.03125 17.40625,-10.03125 z m -18.5625,12.03125 17.40625,10.0625 0,20.09373 -17.40625,-10.06248 0,-20.09375 z m 37.09375,0 0,20.09375 -17.40625,10.06248 0,-20.09373 9.71875,-5.625 7.6875,-4.4375 z m -38.25,22.125 17.40625,10.03123 -17.40625,10.0313 -17.40625,-10.0313 17.40625,-10.03123 z m 39.40625,0 17.40625,10.03123 -17.40625,10.0313 -17.40625,-10.0313 17.40625,-10.03123 z m -57.9375,12.03123 17.40625,10.0938 0,20.0937 -17.40625,-10.0937 0,-20.0938 z m 37.09375,0 0,20.0938 -17.40625,10.0937 0,-20.0937 17.40625,-10.0938 z m 2.28125,0 17.40625,10.0938 0,20.0937 -17.40625,-10.0937 0,-20.0938 z m 37.09375,0 0,20.0938 -17.375,10.0937 0,-20.125 17.375,-10.0625 z"
            fill="#000000"
            fill-opacity="1"
            stroke="black"
            stroke-width="4"
            visibility="visible"
            display="inline"
            overflow="visible"
            />
        </g>
</svg>